<svg width="427" height="517" viewBox="0 0 427 517" fill="none" xmlns="http://www.w3.org/2000/svg">
<path d="M203.627 260.2C204.127 260.2 204.627 260.2 205.227 260.2C205.427 260.2 205.627 260.2 205.827 260.2C206.127 260.2 206.527 260.2 206.827 260.2C236.127 259.7 259.827 249.4 277.327 229.7C315.827 186.3 309.427 111.9 308.727 104.8C306.227 51.5 281.027 26 260.227 14.1C244.727 5.2 226.627 0.4 206.427 0H205.727C205.627 0 205.427 0 205.327 0H204.727C193.627 0 171.827 1.8 150.927 13.7C129.927 25.6 104.327 51.1 101.827 104.8C101.127 111.9 94.7272 186.3 133.227 229.7C150.627 249.4 174.327 259.7 203.627 260.2ZM128.527 107.3C128.527 107 128.627 106.7 128.627 106.5C131.927 34.8 182.827 27.1 204.627 27.1H205.027C205.227 27.1 205.527 27.1 205.827 27.1C232.827 27.7 278.727 38.7 281.827 106.5C281.827 106.8 281.827 107.1 281.927 107.3C282.027 108 289.027 176 257.227 211.8C244.627 226 227.827 233 205.727 233.2C205.527 233.2 205.427 233.2 205.227 233.2C205.027 233.2 204.927 233.2 204.727 233.2C182.727 233 165.827 226 153.327 211.8C121.627 176.2 128.427 107.9 128.527 107.3Z" />
<path fill-rule="evenodd" clip-rule="evenodd" d="M183.434 482.38C176.359 473.718 170.242 464.242 165.245 454.115C91.5131 447.134 42.9374 422.751 29.0272 414.9C27.4272 406.9 26.7272 393 26.9272 384C26.9272 383.612 26.9508 383.224 26.975 382.824C27.0007 382.4 27.0272 381.963 27.0272 381.5C27.7272 358.7 30.3272 333.8 53.6272 325.5C101.194 313.274 139.637 287.364 144.471 284.105C144.698 283.952 144.851 283.849 144.927 283.8C151.027 279.5 152.527 271.1 148.227 265C143.927 258.9 135.527 257.4 129.427 261.7C129.027 262 91.7272 288 46.4272 299.5C46.0272 299.6 45.7272 299.7 45.4272 299.8C2.13759 314.662 0.734102 360.765 0.131815 380.549L0.127222 380.7C0.127222 381.6 0.127222 382.4 0.0272159 383.2V383.5C-0.0727825 388.7 -0.172781 415.4 5.12721 428.8C6.12721 431.4 7.92722 433.6 10.3272 435.1C13.1388 436.974 76.4658 477.319 183.434 482.38Z" />
<path fill-rule="evenodd" clip-rule="evenodd" d="M298.5 517C369.469 517 427 459.469 427 388.5C427 317.531 369.469 260 298.5 260C227.531 260 170 317.531 170 388.5C170 459.469 227.531 517 298.5 517ZM390.75 373.75H211.25V403.75H390.75V373.75Z" />
</svg>
